<?xml version="1.0" standalone="no"?>
<!DOCTYPE svg PUBLIC "-//W3C//DTD SVG 1.1//EN" "http://www.w3.org/Graphics/SVG/1.1/DTD/svg11.dtd">
<svg xmlns:inkscape="http://www.inkscape.org/namespaces/inkscape" xmlns:sodipodi="http://sodipodi.sourceforge.net/DTD/sodipodi-0.dtd" xmlns="http://www.w3.org/2000/svg" xmlns:svg="http://www.w3.org/2000/svg" width="177.69607543945312" height="125.0855484008789" viewBox="0 0 177.69608 125.08555" version="1.1" id="svg1" inkscape:version="1.3.2 (091e20e, 2023-11-25, custom)" sodipodi:docname="preta_reta_azul.svg">
  <sodipodi:namedview id="namedview1" pagecolor="#ffffff" bordercolor="#000000" borderopacity="0.25" inkscape:showpageshadow="2" inkscape:pageopacity="0.0" inkscape:pagecheckerboard="0" inkscape:deskcolor="#d1d1d1" inkscape:document-units="mm" inkscape:zoom="0.73139031" inkscape:cx="3787.9911" inkscape:cy="454.61362" inkscape:window-width="1920" inkscape:window-height="1017" inkscape:window-x="-8" inkscape:window-y="-8" inkscape:window-maximized="1" inkscape:current-layer="layer1" inkscape:export-bgcolor="#ffffff00">
    <inkscape:page x="3.9950198e-08" y="1.1862239e-06" width="177.69608" height="125.08555" id="page3" margin="0" bleed="0" inkscape:export-filename="Elementos logo\palavra_grupo.svg" inkscape:export-xdpi="96" inkscape:export-ydpi="96"/>
    <inkscape:page x="187.69608" y="0" width="177.69608" height="125.08555" id="page18" margin="0" bleed="0"/>
    <inkscape:page x="375.39215" y="0" width="177.69608" height="125.08555" id="page19" margin="0" bleed="0"/>
    <inkscape:page x="563.08826" y="0" width="177.69608" height="125.08555" id="page20" margin="0" bleed="0"/>
    <inkscape:page x="750.7843" y="0" width="177.69608" height="125.08555" id="page21" margin="0" bleed="0"/>
    <inkscape:page x="938.48041" y="0" width="177.69608" height="125.08555" id="page22" margin="0" bleed="0"/>
  </sodipodi:namedview>
  <defs id="defs1"/>
  <g inkscape:label="Camada 1" inkscape:groupmode="layer" id="layer1" transform="translate(-190.02833,-238.3296)">
    <path id="path122-3-1-2-28-8-48-7-9-2" style="font-weight:bold;font-size:5.17618px;font-family:'Josefin Sans';-inkscape-font-specification:'Josefin Sans, Bold';fill:#0097d6;fill-opacity:1;stroke:#0097d6;stroke-width:0.396876;stroke-dasharray:none;stroke-opacity:1" d="m 343.39618,299.96153 c -0.84762,0 -1.54232,0.15952 -2.0845,0.47894 -0.52816,0.30551 -0.91671,0.69455 -1.16636,1.16673 -0.0411,0.0799 -0.0765,0.16055 -0.11052,0.24067 0.46997,0.6689 0.79353,1.50488 0.96896,2.50932 l -0.71266,0.22627 c 0.0155,0.0217 0.027,0.0438 0.0411,0.0655 0.3748,0.49998 0.97944,0.88188 1.81289,1.14576 0.33347,0.0971 0.64599,0.19447 0.93783,0.29167 0.29254,0.0833 0.52873,0.19424 0.70814,0.33309 0.19342,0.13883 0.28998,0.3263 0.28998,0.56236 0,0.16664 -0.0553,0.30542 -0.16495,0.41653 -0.11187,0.0971 -0.26537,0.17376 -0.45864,0.22925 -0.18055,0.0416 -0.38897,0.0623 -0.62489,0.0623 -0.30586,0 -0.65348,-0.0831 -1.04217,-0.24967 -0.37509,-0.18053 -0.78518,-0.47229 -1.22952,-0.87506 l -1.2084,1.60426 c 0.44434,0.47217 0.98623,0.83986 1.62499,1.10373 0.65264,0.26373 1.35455,0.39597 2.10418,0.39612 h 5.7e-4 c 0.88868,-1.5e-4 1.61763,-0.15308 2.18702,-0.45855 0.58339,-0.3055 1.01344,-0.70106 1.2914,-1.18714 0.29155,-0.49996 0.43768,-1.02773 0.43768,-1.58324 0,-0.45831 -0.0891,-0.84732 -0.2696,-1.16674 -0.16682,-0.33332 -0.40966,-0.61798 -0.72897,-0.85406 -0.31972,-0.2361 -0.70162,-0.4235 -1.14584,-0.56233 -0.31959,-0.11112 -0.64654,-0.20838 -0.97973,-0.29172 -0.33303,-0.0833 -0.61072,-0.20131 -0.83346,-0.35408 -0.22018,-0.15278 -0.31689,-0.36151 -0.28985,-0.62538 0,-0.12497 0.0495,-0.24301 0.14515,-0.35411 0.0964,-0.11113 0.22783,-0.20121 0.39436,-0.27067 0.18096,-0.0696 0.39634,-0.0973 0.64597,-0.0834 0.27783,0.0151 0.57632,0.0976 0.89562,0.25025 0.33447,0.13883 0.63325,0.31265 0.89635,0.52095 l 1.10405,-1.70868 c -0.47251,-0.3472 -0.97221,-0.59687 -1.50024,-0.74964 -0.52804,-0.15275 -1.17361,-0.22926 -1.93725,-0.22926 z"/>
    <path id="path123-4-9-5-4-8-5-2-2-0" style="font-weight:bold;font-size:5.17618px;font-family:'Josefin Sans';-inkscape-font-specification:'Josefin Sans, Bold';fill:#0097d6;fill-opacity:1;stroke:#0097d6;stroke-width:0.396876;stroke-dasharray:none;stroke-opacity:1" d="m 334.64765,299.91981 c -0.97236,0 -1.85496,0.22238 -2.64677,0.66679 -0.79155,0.43052 -1.42352,1.01406 -1.89576,1.75011 0.41701,0.73605 0.62503,1.56925 0.62503,2.49971 0,0.93047 -0.20802,1.77079 -0.62503,2.52074 -0.0155,0.03 -0.0354,0.0581 -0.0524,0.0875 0.40044,0.69346 0.96542,1.24187 1.69835,1.64148 0.77809,0.41662 1.72227,0.62478 2.83341,0.62478 v 0 c 0.50042,0 1.02801,-0.0836 1.58379,-0.25028 0.56953,-0.16665 1.09755,-0.38845 1.58338,-0.66618 l -1.29181,-2.16663 c -0.29155,0.18052 -0.5899,0.32638 -0.89562,0.43752 -0.29169,0.11112 -0.59741,0.16625 -0.91671,0.16625 -0.44463,0 -0.84749,-0.0965 -1.20842,-0.29109 -0.23194,-0.12513 -0.43202,-0.28854 -0.60152,-0.48853 l 6.66228,-2.11562 c -0.24992,-1.43044 -0.79848,-2.521 -1.64595,-3.27094 -0.8336,-0.76383 -1.90254,-1.14574 -3.20823,-1.14574 z m -0.22982,2.27105 c 0.56966,0 0.99404,0.13883 1.27157,0.41654 0.27641,0.24899 0.47012,0.54184 0.58354,0.87742 l -3.99623,1.34862 c 0,-0.0607 0,-0.12212 0,-0.18486 0,-0.49995 0.0849,-0.93049 0.24978,-1.29158 0.18054,-0.37496 0.43061,-0.65961 0.74976,-0.85406 0.33361,-0.20829 0.71551,-0.31208 1.14598,-0.31208 z"/>
    <path style="font-weight:bold;font-size:5.17618px;font-family:'Josefin Sans';-inkscape-font-specification:'Josefin Sans, Bold';fill:#0097d6;fill-opacity:1;stroke:#0097d6;stroke-width:0.396876;stroke-dasharray:none;stroke-opacity:1" d="m 327.00921,299.4123 q -0.48848,-0.14424 -0.76157,-0.43596 -0.26928,-0.30571 -0.48084,-0.59439 -0.12211,-0.17173 -0.2505,-0.31525 -0.11534,-0.13943 -0.28778,-0.19054 -0.18583,-0.0546 -0.3427,0.0497 -0.14154,0.10902 -0.23276,0.30839 -0.0899,0.19968 -0.12286,0.41623 l -1.00581,-0.29683 q 0.0878,-0.56231 0.38857,-1.00142 0.31539,-0.43482 0.76522,-0.63387 0.46357,-0.195 1.02404,-0.0297 0.35924,0.106 0.5891,0.38507 0.23045,0.27918 0.41731,0.54548 0.15064,0.22547 0.28722,0.40147 0.13536,0.17574 0.30839,0.22677 0.27217,0.0803 0.40584,-0.21204 0.1526,-0.30187 0.23727,-0.63886 l 1.00579,0.29681 q -0.0756,0.62626 -0.37777,1.06493 -0.29637,0.42536 -0.72388,0.60082 -0.41232,0.17999 -0.84338,0.0529 z" id="path124-1-8-2-2-8-7-4-7-1"/>
    <path style="font-weight:bold;font-size:5.17618px;font-family:'Josefin Sans';-inkscape-font-specification:'Josefin Sans, Bold';fill:#0097d6;fill-opacity:1;stroke:#0097d6;stroke-width:0.396876;stroke-dasharray:none;stroke-opacity:1" d="m 318.87791,304.79462 q 0,-1.39573 0.64583,-2.4998 0.66693,-1.10408 1.85439,-1.72903 1.18788,-0.64579 2.72977,-0.64579 1.56255,0 2.7088,0.64579 1.14611,0.62495 1.75018,1.72903 0.62516,1.10407 0.62516,2.4998 0,1.39568 -0.62516,2.52059 -0.60407,1.10409 -1.75018,1.74988 -1.14625,0.64579 -2.75043,0.64579 -1.50053,0 -2.68814,-0.5833 -1.16663,-0.58329 -1.83329,-1.68737 -0.66708,-1.10406 -0.66693,-2.64559 z m 2.9379,0.0208 q 0,0.70827 0.29001,1.29153 0.28971,0.56248 0.79168,0.89577 0.49985,0.33332 1.12515,0.33332 0.68747,0 1.18746,-0.33332 0.50056,-0.33329 0.77115,-0.89577 0.26962,-0.58326 0.26962,-1.29153 0,-0.7291 -0.26962,-1.29157 -0.26946,-0.56246 -0.77115,-0.89577 -0.49999,-0.3333 -1.18746,-0.3333 -0.6253,0 -1.12515,0.3333 -0.50013,0.33334 -0.79168,0.89577 -0.29001,0.56247 -0.29001,1.29157 z" id="path125-9-2-8-8-4-48-5-2-8"/>
    <path id="path127-3-6-4-6-9-99-7-1-6" style="font-weight:bold;font-size:5.17618px;font-family:'Josefin Sans';-inkscape-font-specification:'Josefin Sans, Bold';fill:#0097d6;fill-opacity:1;stroke:#0097d6;stroke-width:0.396876;stroke-dasharray:none;stroke-opacity:1" d="m 314.91117,300.05964 c -0.81958,0 -1.60447,0.18741 -2.35425,0.56236 -0.72795,0.37058 -1.3197,0.9114 -1.77594,1.62109 v 5.33192 c 0.42353,0.64956 0.99318,1.15941 1.71266,1.52565 0.25218,0.12151 0.51952,0.22096 0.79904,0.30307 l -1.11184,0.82166 0.3945,1.37499 c 0.19342,-0.0557 0.39477,-0.11142 0.60407,-0.16688 0.20786,-0.0416 0.42366,-0.0623 0.64639,-0.0623 0.45851,0 0.75671,0.0766 0.8959,0.22927 0.13883,0.15277 0.20873,0.30515 0.20873,0.45792 0,0.25 -0.13025,0.43739 -0.3945,0.56236 -0.24979,0.12498 -0.49334,0.18787 -0.7291,0.18787 -0.26366,0 -0.50679,-0.0559 -0.72966,-0.16685 -0.20815,-0.0971 -0.38148,-0.22884 -0.52025,-0.39552 l -0.89717,1.14575 c 0.23633,0.24995 0.54884,0.46522 0.93781,0.64577 0.38884,0.19444 0.88855,0.29169 1.50026,0.29169 0.55536,0 1.07629,-0.0836 1.56255,-0.25025 0.50041,-0.16667 0.90313,-0.42345 1.20856,-0.77064 0.31974,-0.3333 0.4796,-0.76384 0.4796,-1.29158 0,-0.65272 -0.27088,-1.13901 -0.81293,-1.45842 -0.43173,-0.26144 -0.94928,-0.40445 -1.54868,-0.43333 l 0.41716,-0.46634 c 0.52449,-0.0179 1.05449,-0.11323 1.59017,-0.28748 0.61128,-0.19441 1.11821,-0.45121 1.5212,-0.7706 l -1.45507,-1.83355 c -0.19457,0.16667 -0.43061,0.29894 -0.70843,0.39611 -0.2638,0.0833 -0.55564,0.12482 -0.8751,0.12482 -0.50012,0 -0.93794,-0.1045 -1.31305,-0.31269 -0.36036,-0.2222 -0.64484,-0.52048 -0.85441,-0.89544 -0.20914,-0.37499 -0.31364,-0.78475 -0.31364,-1.22915 0,-0.47218 0.0964,-0.88909 0.28985,-1.25017 0.19442,-0.36111 0.4585,-0.64573 0.79197,-0.85405 0.33319,-0.20832 0.7012,-0.31209 1.10434,-0.31209 0.45821,0 0.85399,0.0831 1.18746,0.24966 0.34862,0.15277 0.61964,0.30577 0.81306,0.45854 l 1.41642,-1.87494 c -0.43046,-0.36108 -0.95169,-0.65285 -1.56297,-0.87505 -0.59699,-0.2222 -1.30513,-0.33308 -2.12471,-0.33308 z"/>
    <path id="path128-9-3-8-3-8-7-7-67-3" style="font-weight:bold;font-size:5.17618px;font-family:'Josefin Sans';-inkscape-font-specification:'Josefin Sans, Bold';fill:#0097d6;fill-opacity:1;stroke:#0097d6;stroke-width:0.396876;stroke-dasharray:none;stroke-opacity:1" d="m 301.05529,300.35733 -0.94165,2.28605 v 4.52593 c 0.0269,0.80547 0.31959,1.46551 0.87537,1.97938 0.55535,0.49981 1.24339,0.74946 2.06255,0.74962 0.54119,-2.8e-4 1.02716,-0.0839 1.4572,-0.25029 0.4442,-0.15277 0.82625,-0.37457 1.14611,-0.66619 0.31251,-0.28636 0.5722,-0.61339 0.77966,-0.9801 l 0.20177,1.45902 h 2.64608 v -9.10342 h -2.91681 v 3.70787 c 0,0.63885 -0.0891,1.21527 -0.26946,1.72911 -0.16681,0.49996 -0.41022,0.89609 -0.72939,1.18773 -0.30571,0.29165 -0.67359,0.43692 -1.10419,0.43692 -0.43161,0 -0.7376,-0.1179 -0.91716,-0.35409 -0.18252,-0.24998 -0.28702,-0.57613 -0.31406,-0.97887 v -5.72867 z"/>
    <path id="path129-9-4-7-1-1-6-5-9-3" style="font-weight:bold;font-size:5.17618px;font-family:'Josefin Sans';-inkscape-font-specification:'Josefin Sans, Bold';fill:#0097d6;fill-opacity:1;stroke:#0097d6;stroke-width:0.396876;stroke-dasharray:none;stroke-opacity:1" d="m 295.59208,293.04063 -0.005,12.25136 c 0.0615,0.10885 0.10931,0.22506 0.1579,0.34324 0.35388,0.86057 0.48108,1.71684 0.38085,2.56892 -0.0494,0.44482 -0.16536,0.86859 -0.34286,1.27207 l 2.72244,6.3e-4 0.006,-16.43618 z"/>
    <path id="path129-9-4-7-1-1-6-5-9-3-5" style="font-weight:bold;font-size:5.17618px;font-family:'Josefin Sans';-inkscape-font-specification:'Josefin Sans, Bold';fill:#0097d6;fill-opacity:1;stroke:#0097d6;stroke-width:0.396876;stroke-dasharray:none;stroke-opacity:1" d="m 297.10072,309.47669 0.002,-4.69607 c -0.0319,-0.0417 -0.0567,-0.0863 -0.0819,-0.13156 -0.18357,-0.32984 -0.2496,-0.65805 -0.19771,-0.98467 0.0256,-0.17051 0.0857,-0.33295 0.17767,-0.48762 l -1.41166,-6e-5 -0.002,6.30016 z"/>
    <path id="path130-7-6-9-61-1-55-5-2-7" style="font-weight:bold;font-size:5.17618px;font-family:'Josefin Sans';-inkscape-font-specification:'Josefin Sans, Bold';fill:#0097d6;fill-opacity:1;stroke:#0097d6;stroke-width:0.396876;stroke-dasharray:none;stroke-opacity:1" d="m 289.0477,299.91981 c -1.02802,0 -1.9378,0.21527 -2.72977,0.64579 -0.79183,0.41663 -1.41047,0.99304 -1.8551,1.7291 -0.37028,0.63297 -0.58014,1.33821 -0.63225,2.11501 0.31251,0.234 0.55126,0.51487 0.71579,0.84324 0.17956,0.31942 0.26962,0.70785 0.26962,1.16612 0,0.40522 -0.0765,0.79589 -0.23351,1.17156 0.43529,0.66164 1.01245,1.17549 1.73545,1.53704 0.79197,0.38887 1.68787,0.58338 2.68772,0.58338 1.06963,0 1.9865,-0.21529 2.75071,-0.64579 0.76407,-0.43053 1.34704,-1.01408 1.74989,-1.75011 0.41688,-0.74994 0.62559,-1.59025 0.62559,-2.52074 0,-0.93046 -0.20871,-1.76369 -0.62559,-2.49971 -0.40285,-0.73606 -0.98582,-1.31247 -1.74989,-1.7291 -0.76421,-0.43052 -1.66706,-0.64579 -2.70866,-0.64579 z m -0.0864,2.37489 c 0.45821,0 0.85428,0.11082 1.18731,0.33309 0.3346,0.2222 0.59189,0.52109 0.77171,0.89604 0.17985,0.37499 0.27004,0.80553 0.27004,1.2916 0,0.47218 -0.0906,0.90269 -0.27004,1.29156 -0.18067,0.37497 -0.43795,0.67326 -0.77171,0.89547 -0.33303,0.2222 -0.7291,0.33368 -1.18731,0.33368 -0.41687,0 -0.79169,-0.11157 -1.12501,-0.33368 -0.33461,-0.22221 -0.59883,-0.52048 -0.79183,-0.89547 -0.19314,-0.38887 -0.29001,-0.81938 -0.29001,-1.29156 0,-0.48607 0.0964,-0.91661 0.29001,-1.2916 0.19413,-0.37495 0.45835,-0.67384 0.79183,-0.89604 0.33332,-0.22221 0.70814,-0.33309 1.12501,-0.33309 z"/>
    <path style="font-weight:bold;font-size:5.17618px;font-family:'Josefin Sans';-inkscape-font-specification:'Josefin Sans, Bold';fill:#0097d6;fill-opacity:1;stroke:#0097d6;stroke-width:0.396876;stroke-dasharray:none;stroke-opacity:1" d="m 279.40101,309.64805 q -1.12515,0 -2.10459,-0.39581 -0.9585,-0.3958 -1.6253,-1.10407 l 1.20871,-1.60404 q 0.66651,0.60412 1.22936,0.87492 0.58326,0.24998 1.04162,0.24998 0.35441,0 0.62558,-0.0626 0.29354,-0.0833 0.45836,-0.22914 0.16496,-0.16667 0.16496,-0.41665 0,-0.3541 -0.28985,-0.56245 -0.26988,-0.20828 -0.70843,-0.33332 -0.43768,-0.14575 -0.93767,-0.29164 -1.25046,-0.39581 -1.81274,-1.14574 -0.54191,-0.77075 -0.54191,-1.66652 0,-0.68746 0.35442,-1.37489 0.37424,-0.70829 1.16705,-1.16657 0.81222,-0.47912 2.0835,-0.47912 1.14626,0 1.93794,0.22915 0.79126,0.22916 1.49998,0.74993 l -1.10435,1.7082 q -0.39435,-0.31249 -0.89617,-0.52079 -0.47919,-0.22918 -0.89549,-0.24998 -0.37453,-0.0209 -0.64627,0.0833 -0.24963,0.10404 -0.3942,0.27082 -0.14515,0.16665 -0.14515,0.35411 -0.0396,0.39581 0.28958,0.62495 0.33445,0.22918 0.83331,0.35417 0.50028,0.12497 0.9796,0.29165 0.66637,0.20831 1.14582,0.56244 0.47917,0.35413 0.72953,0.85412 0.2696,0.47913 0.2696,1.16656 0,0.83328 -0.43754,1.58321 -0.41659,0.72911 -1.29168,1.18738 -0.85399,0.45833 -2.18771,0.45833 z" id="path131-4-5-9-2-1-5-7-1-0"/>
    <path id="path122-3-1-2-28-8-48-7-9-2-4" style="font-weight:bold;font-size:5.17618px;font-family:'Josefin Sans';-inkscape-font-specification:'Josefin Sans, Bold';fill:#0097d6;fill-opacity:1;stroke:#0097d6;stroke-width:0.396876;stroke-dasharray:none;stroke-opacity:1" d="m 1059.7712,297.23315 c -0.8476,0 -1.5423,0.15952 -2.0845,0.47894 -0.5281,0.30551 -0.9167,0.69455 -1.1663,1.16673 -0.041,0.0799 -0.077,0.16055 -0.1105,0.24067 0.4699,0.6689 0.7935,1.50488 0.9689,2.50932 l -0.7126,0.22627 c 0.015,0.0217 0.027,0.0438 0.041,0.0655 0.3749,0.49998 0.9795,0.88188 1.8129,1.14576 0.3335,0.0971 0.646,0.19447 0.9379,0.29167 0.2925,0.0833 0.5287,0.19424 0.7081,0.33309 0.1934,0.13883 0.29,0.3263 0.29,0.56236 0,0.16664 -0.055,0.30542 -0.165,0.41653 -0.1118,0.0971 -0.2653,0.17376 -0.4586,0.22925 -0.1805,0.0416 -0.389,0.0623 -0.6249,0.0623 -0.3058,0 -0.6535,-0.0831 -1.0422,-0.24967 -0.375,-0.18053 -0.7851,-0.47229 -1.2295,-0.87506 l -1.2084,1.60426 c 0.4444,0.47217 0.9863,0.83986 1.625,1.10373 0.6527,0.26373 1.3546,0.39597 2.1042,0.39612 h 6e-4 c 0.8886,-1.5e-4 1.6176,-0.15308 2.187,-0.45855 0.5834,-0.3055 1.0134,-0.70106 1.2914,-1.18714 0.2915,-0.49996 0.4377,-1.02773 0.4377,-1.58324 0,-0.45831 -0.089,-0.84732 -0.2696,-1.16674 -0.1669,-0.33332 -0.4097,-0.61798 -0.729,-0.85406 -0.3197,-0.2361 -0.7016,-0.4235 -1.1458,-0.56233 -0.3196,-0.11112 -0.6466,-0.20838 -0.9798,-0.29172 -0.333,-0.0833 -0.6107,-0.20131 -0.8334,-0.35408 -0.2202,-0.15278 -0.3169,-0.36151 -0.2899,-0.62538 0,-0.12497 0.05,-0.24301 0.1452,-0.35411 0.096,-0.11113 0.2278,-0.20121 0.3943,-0.27067 0.181,-0.0696 0.3964,-0.0973 0.646,-0.0834 0.2778,0.0151 0.5763,0.0976 0.8956,0.25025 0.3345,0.13883 0.6333,0.31265 0.8964,0.52095 l 1.104,-1.70868 c -0.4725,-0.3472 -0.9722,-0.59687 -1.5002,-0.74964 -0.5281,-0.15275 -1.1736,-0.22926 -1.9373,-0.22926 z"/>
    <path id="path123-4-9-5-4-8-5-2-2-0-2" style="font-weight:bold;font-size:5.17618px;font-family:'Josefin Sans';-inkscape-font-specification:'Josefin Sans, Bold';fill:#0097d6;fill-opacity:1;stroke:#0097d6;stroke-width:0.396876;stroke-dasharray:none;stroke-opacity:1" d="m 1051.0227,297.19143 c -0.9724,0 -1.855,0.22238 -2.6468,0.66679 -0.7915,0.43052 -1.4235,1.01406 -1.8957,1.75011 0.417,0.73605 0.625,1.56925 0.625,2.49971 0,0.93047 -0.208,1.77079 -0.625,2.52074 -0.015,0.03 -0.035,0.0581 -0.052,0.0875 0.4004,0.69346 0.9654,1.24187 1.6983,1.64148 0.7781,0.41662 1.7223,0.62478 2.8334,0.62478 v 0 c 0.5005,0 1.028,-0.0836 1.5838,-0.25028 0.5696,-0.16665 1.0976,-0.38845 1.5834,-0.66618 l -1.2918,-2.16663 c -0.2916,0.18052 -0.5899,0.32638 -0.8956,0.43752 -0.2917,0.11112 -0.5974,0.16625 -0.9167,0.16625 -0.4447,0 -0.8475,-0.0965 -1.2085,-0.29109 -0.2319,-0.12513 -0.432,-0.28854 -0.6015,-0.48853 l 6.6623,-2.11562 c -0.2499,-1.43044 -0.7985,-2.521 -1.6459,-3.27094 -0.8336,-0.76383 -1.9026,-1.14574 -3.2083,-1.14574 z m -0.2298,2.27105 c 0.5696,0 0.994,0.13883 1.2716,0.41654 0.2764,0.24899 0.4701,0.54184 0.5835,0.87742 l -3.9962,1.34862 c 0,-0.0607 0,-0.12212 0,-0.18486 0,-0.49995 0.085,-0.93049 0.2497,-1.29158 0.1806,-0.37496 0.4307,-0.65961 0.7498,-0.85406 0.3336,-0.20829 0.7155,-0.31208 1.146,-0.31208 z"/>
    <path style="font-weight:bold;font-size:5.17618px;font-family:'Josefin Sans';-inkscape-font-specification:'Josefin Sans, Bold';fill:#0097d6;fill-opacity:1;stroke:#0097d6;stroke-width:0.396876;stroke-dasharray:none;stroke-opacity:1" d="m 1043.3843,296.68392 q -0.4885,-0.14424 -0.7616,-0.43596 -0.2693,-0.30571 -0.4808,-0.59439 -0.1222,-0.17173 -0.2505,-0.31525 -0.1154,-0.13943 -0.2878,-0.19054 -0.1859,-0.0546 -0.3427,0.0497 -0.1416,0.10902 -0.2328,0.30839 -0.09,0.19968 -0.1228,0.41623 l -1.0059,-0.29683 q 0.088,-0.56231 0.3886,-1.00142 0.3154,-0.43482 0.7652,-0.63387 0.4636,-0.195 1.0241,-0.0297 0.3592,0.106 0.5891,0.38507 0.2304,0.27918 0.4173,0.54548 0.1506,0.22547 0.2872,0.40147 0.1354,0.17574 0.3084,0.22677 0.2722,0.0803 0.4058,-0.21204 0.1526,-0.30187 0.2373,-0.63886 l 1.0058,0.29681 q -0.076,0.62626 -0.3778,1.06493 -0.2963,0.42536 -0.7239,0.60082 -0.4123,0.17999 -0.8433,0.0529 z" id="path124-1-8-2-2-8-7-4-7-1-8"/>
    <path style="font-weight:bold;font-size:5.17618px;font-family:'Josefin Sans';-inkscape-font-specification:'Josefin Sans, Bold';fill:#0097d6;fill-opacity:1;stroke:#0097d6;stroke-width:0.396876;stroke-dasharray:none;stroke-opacity:1" d="m 1035.253,302.06624 q 0,-1.39573 0.6458,-2.4998 0.6669,-1.10408 1.8544,-1.72903 1.1879,-0.64579 2.7298,-0.64579 1.5625,0 2.7087,0.64579 1.1462,0.62495 1.7502,1.72903 0.6252,1.10407 0.6252,2.4998 0,1.39568 -0.6252,2.52059 -0.604,1.10409 -1.7502,1.74988 -1.1462,0.64579 -2.7504,0.64579 -1.5005,0 -2.6881,-0.5833 -1.1666,-0.58329 -1.8333,-1.68737 -0.6671,-1.10406 -0.6669,-2.64559 z m 2.9379,0.0208 q 0,0.70827 0.29,1.29153 0.2897,0.56248 0.7917,0.89577 0.4998,0.33332 1.1251,0.33332 0.6875,0 1.1875,-0.33332 0.5005,-0.33329 0.7711,-0.89577 0.2696,-0.58326 0.2696,-1.29153 0,-0.7291 -0.2696,-1.29157 -0.2694,-0.56246 -0.7711,-0.89577 -0.5,-0.3333 -1.1875,-0.3333 -0.6253,0 -1.1251,0.3333 -0.5002,0.33334 -0.7917,0.89577 -0.29,0.56247 -0.29,1.29157 z" id="path125-9-2-8-8-4-48-5-2-8-4"/>
    <path id="path127-3-6-4-6-9-99-7-1-6-1" style="font-weight:bold;font-size:5.17618px;font-family:'Josefin Sans';-inkscape-font-specification:'Josefin Sans, Bold';fill:#0097d6;fill-opacity:1;stroke:#0097d6;stroke-width:0.396876;stroke-dasharray:none;stroke-opacity:1" d="m 1031.2862,297.33126 c -0.8196,0 -1.6044,0.18741 -2.3542,0.56236 -0.728,0.37058 -1.3197,0.9114 -1.776,1.62109 v 5.33192 c 0.4236,0.64956 0.9932,1.15941 1.7127,1.52565 0.2522,0.12151 0.5195,0.22096 0.799,0.30307 l -1.1118,0.82166 0.3945,1.37499 c 0.1934,-0.0557 0.3948,-0.11142 0.6041,-0.16688 0.2078,-0.0416 0.4236,-0.0623 0.6464,-0.0623 0.4585,0 0.7567,0.0766 0.8959,0.22927 0.1388,0.15277 0.2087,0.30515 0.2087,0.45792 0,0.25 -0.1303,0.43739 -0.3945,0.56236 -0.2498,0.12498 -0.4934,0.18787 -0.7291,0.18787 -0.2637,0 -0.5068,-0.0559 -0.7297,-0.16685 -0.2081,-0.0971 -0.3815,-0.22884 -0.5202,-0.39552 l -0.8972,1.14575 c 0.2363,0.24995 0.5488,0.46522 0.9378,0.64577 0.3889,0.19444 0.8886,0.29169 1.5003,0.29169 0.5553,0 1.0763,-0.0836 1.5625,-0.25025 0.5004,-0.16667 0.9032,-0.42345 1.2086,-0.77064 0.3197,-0.3333 0.4796,-0.76384 0.4796,-1.29158 0,-0.65272 -0.2709,-1.13901 -0.8129,-1.45842 -0.4318,-0.26144 -0.9493,-0.40445 -1.5487,-0.43333 l 0.4171,-0.46634 c 0.5245,-0.0179 1.0545,-0.11323 1.5902,-0.28748 0.6113,-0.19441 1.1182,-0.45121 1.5212,-0.7706 l -1.4551,-1.83355 c -0.1945,0.16667 -0.4306,0.29894 -0.7084,0.39611 -0.2638,0.0833 -0.5556,0.12482 -0.8751,0.12482 -0.5001,0 -0.9379,-0.1045 -1.313,-0.31269 -0.3604,-0.2222 -0.6449,-0.52048 -0.8545,-0.89544 -0.2091,-0.37499 -0.3136,-0.78475 -0.3136,-1.22915 0,-0.47218 0.096,-0.88909 0.2899,-1.25017 0.1944,-0.36111 0.4585,-0.64573 0.7919,-0.85405 0.3332,-0.20832 0.7012,-0.31209 1.1044,-0.31209 0.4582,0 0.854,0.0831 1.1874,0.24966 0.3486,0.15277 0.6197,0.30577 0.8131,0.45854 l 1.4164,-1.87494 c -0.4305,-0.36108 -0.9517,-0.65285 -1.563,-0.87505 -0.597,-0.2222 -1.3051,-0.33308 -2.1247,-0.33308 z"/>
    <path id="path128-9-3-8-3-8-7-7-67-3-0" style="font-weight:bold;font-size:5.17618px;font-family:'Josefin Sans';-inkscape-font-specification:'Josefin Sans, Bold';fill:#0097d6;fill-opacity:1;stroke:#0097d6;stroke-width:0.396876;stroke-dasharray:none;stroke-opacity:1" d="m 1017.4303,297.62895 -0.9416,2.28605 v 4.52593 c 0.027,0.80547 0.3196,1.46551 0.8754,1.97938 0.5553,0.49981 1.2434,0.74946 2.0625,0.74962 0.5412,-2.8e-4 1.0272,-0.0839 1.4572,-0.25029 0.4442,-0.15277 0.8263,-0.37457 1.1461,-0.66619 0.3125,-0.28636 0.5722,-0.61339 0.7797,-0.9801 l 0.2018,1.45902 h 2.646 v -9.10342 h -2.9168 v 3.70787 c 0,0.63885 -0.089,1.21527 -0.2694,1.72911 -0.1668,0.49996 -0.4103,0.89609 -0.7294,1.18773 -0.3057,0.29165 -0.6736,0.43692 -1.1042,0.43692 -0.4316,0 -0.7376,-0.1179 -0.9172,-0.35409 -0.1825,-0.24998 -0.287,-0.57613 -0.314,-0.97887 v -5.72867 z"/>
    <path id="path129-9-4-7-1-1-6-5-9-3-9" style="font-weight:bold;font-size:5.17618px;font-family:'Josefin Sans';-inkscape-font-specification:'Josefin Sans, Bold';fill:#0097d6;fill-opacity:1;stroke:#0097d6;stroke-width:0.396876;stroke-dasharray:none;stroke-opacity:1" d="m 1011.9671,290.31225 v 12.25136 c 0.062,0.10885 0.1093,0.22506 0.1579,0.34324 0.3539,0.86057 0.4811,1.71684 0.3809,2.56892 -0.049,0.44482 -0.1654,0.86859 -0.3429,1.27207 l 2.7225,6.3e-4 0.01,-16.43618 z"/>
    <path id="path129-9-4-7-1-1-6-5-9-3-5-8" style="font-weight:bold;font-size:5.17618px;font-family:'Josefin Sans';-inkscape-font-specification:'Josefin Sans, Bold';fill:#0097d6;fill-opacity:1;stroke:#0097d6;stroke-width:0.396876;stroke-dasharray:none;stroke-opacity:1" d="m 1013.4758,306.74831 v -4.69607 c -0.032,-0.0417 -0.057,-0.0863 -0.082,-0.13156 -0.1836,-0.32984 -0.2496,-0.65805 -0.1977,-0.98467 0.026,-0.17051 0.086,-0.33295 0.1776,-0.48762 l -1.4116,-6e-5 v 6.30016 z"/>
    <path id="path130-7-6-9-61-1-55-5-2-7-0" style="font-weight:bold;font-size:5.17618px;font-family:'Josefin Sans';-inkscape-font-specification:'Josefin Sans, Bold';fill:#0097d6;fill-opacity:1;stroke:#0097d6;stroke-width:0.396876;stroke-dasharray:none;stroke-opacity:1" d="m 1005.4228,297.19143 c -1.0281,0 -1.9378,0.21527 -2.7298,0.64579 -0.7919,0.41663 -1.4105,0.99304 -1.8551,1.7291 -0.3703,0.63297 -0.5802,1.33821 -0.6323,2.11501 0.3125,0.234 0.5513,0.51487 0.7158,0.84324 0.1796,0.31942 0.2696,0.70785 0.2696,1.16612 0,0.40522 -0.077,0.79589 -0.2335,1.17156 0.4353,0.66164 1.0125,1.17549 1.7355,1.53704 0.792,0.38887 1.6879,0.58338 2.6877,0.58338 1.0696,0 1.9865,-0.21529 2.7507,-0.64579 0.7641,-0.43053 1.3471,-1.01408 1.7499,-1.75011 0.4169,-0.74994 0.6256,-1.59025 0.6256,-2.52074 0,-0.93046 -0.2087,-1.76369 -0.6256,-2.49971 -0.4028,-0.73606 -0.9858,-1.31247 -1.7499,-1.7291 -0.7642,-0.43052 -1.667,-0.64579 -2.7086,-0.64579 z m -0.087,2.37489 c 0.4583,0 0.8543,0.11082 1.1874,0.33309 0.3346,0.2222 0.5919,0.52109 0.7717,0.89604 0.1798,0.37499 0.27,0.80553 0.27,1.2916 0,0.47218 -0.091,0.90269 -0.27,1.29156 -0.1807,0.37497 -0.438,0.67326 -0.7717,0.89547 -0.3331,0.2222 -0.7291,0.33368 -1.1874,0.33368 -0.4168,0 -0.7916,-0.11157 -1.125,-0.33368 -0.3346,-0.22221 -0.5988,-0.52048 -0.7918,-0.89547 -0.1931,-0.38887 -0.29,-0.81938 -0.29,-1.29156 0,-0.48607 0.096,-0.91661 0.29,-1.2916 0.1941,-0.37495 0.4584,-0.67384 0.7918,-0.89604 0.3334,-0.22221 0.7082,-0.33309 1.125,-0.33309 z"/>
    <path style="font-weight:bold;font-size:5.17618px;font-family:'Josefin Sans';-inkscape-font-specification:'Josefin Sans, Bold';fill:#0097d6;fill-opacity:1;stroke:#0097d6;stroke-width:0.396876;stroke-dasharray:none;stroke-opacity:1" d="m 995.77604,306.91967 q -1.12515,0 -2.10459,-0.39581 -0.9585,-0.3958 -1.6253,-1.10407 l 1.20871,-1.60404 q 0.66651,0.60412 1.22936,0.87492 0.58326,0.24998 1.04162,0.24998 0.35441,0 0.62558,-0.0626 0.29354,-0.0833 0.45836,-0.22914 0.16496,-0.16667 0.16496,-0.41665 0,-0.3541 -0.28985,-0.56245 -0.26988,-0.20828 -0.70843,-0.33332 -0.43768,-0.14575 -0.93767,-0.29164 -1.25046,-0.39581 -1.81274,-1.14574 -0.54191,-0.77075 -0.54191,-1.66652 0,-0.68746 0.35442,-1.37489 0.37424,-0.70829 1.16705,-1.16657 0.81222,-0.47912 2.0835,-0.47912 1.14626,0 1.93794,0.22915 0.79126,0.22916 1.49998,0.74993 l -1.10435,1.7082 q -0.39435,-0.31249 -0.89617,-0.52079 -0.47919,-0.22918 -0.89549,-0.24998 -0.37453,-0.0209 -0.64627,0.0833 -0.24963,0.10404 -0.3942,0.27082 -0.14515,0.16665 -0.14515,0.35411 -0.0396,0.39581 0.28958,0.62495 0.33445,0.22918 0.83331,0.35417 0.50028,0.12497 0.9796,0.29165 0.66637,0.20831 1.14582,0.56244 0.47917,0.35413 0.72953,0.85412 0.2696,0.47913 0.2696,1.16656 0,0.83328 -0.43754,1.58321 -0.41659,0.72911 -1.29168,1.18738 -0.85399,0.45833 -2.18771,0.45833 z" id="path131-4-5-9-2-1-5-7-1-0-7"/>
    <path id="path99-5-4-1-0-21-1-0-5" style="fill:#0097d6;fill-opacity:1;stroke:none;stroke-width:0.577724;stroke-opacity:1" d="m 272.15351,299.26629 -0.36292,0.35301 -22.93565,22.41016 22.03111,-11.95258 1.22612,-10.28787 0.0581,-0.51419 z"/>
    <path id="path100-1-1-9-9-0-0-1-8" style="fill:#000000;fill-opacity:1;stroke:none;stroke-width:0.577724" d="m 263.61207,302.47928 0.36164,-0.35365 22.93549,-22.41034 -22.03095,11.95264 -1.22611,10.28799 -0.0581,0.51418 z"/>
    <g id="g6-50-0-04-5-9-4" transform="matrix(1.2259598,0,0,1.2256526,-995.44058,664.70505)" style="stroke-width:0.815787">
      <path style="font-weight:bold;font-size:16.5144px;font-family:'Josefin Sans';-inkscape-font-specification:'Josefin Sans, Bold';stroke-width:1.72161" d="m 1016.3525,-300.02628 q 0,-1.10647 0.5119,-1.98173 0.5285,-0.87526 1.4698,-1.3707 0.9413,-0.51194 2.1634,-0.51194 1.2386,0 2.1468,0.51194 0.9083,0.49544 1.3873,1.3707 0.4954,0.87526 0.4954,1.98173 0,1.10646 -0.4954,1.99824 -0.479,0.87526 -1.3873,1.38721 -0.9082,0.51195 -2.1799,0.51195 -1.189,0 -2.1303,-0.46241 -0.9248,-0.4624 -1.4533,-1.33766 -0.5284,-0.87527 -0.5284,-2.09733 z m 2.3285,0.0165 q 0,0.56149 0.2312,1.02389 0.2312,0.44589 0.6275,0.71012 0.3964,0.26423 0.8918,0.26423 0.545,0 0.9413,-0.26423 0.3964,-0.26423 0.6111,-0.71012 0.2147,-0.4624 0.2147,-1.02389 0,-0.578 -0.2147,-1.02389 -0.2147,-0.44589 -0.6111,-0.71012 -0.3963,-0.26423 -0.9413,-0.26423 -0.4954,0 -0.8918,0.26423 -0.3963,0.26423 -0.6275,0.71012 -0.2312,0.44589 -0.2312,1.02389 z" id="path160-5-5-3-2-3-9"/>
      <path style="font-weight:bold;font-size:16.5144px;font-family:'Josefin Sans';-inkscape-font-specification:'Josefin Sans, Bold';stroke-width:1.72161" d="m 1011.5987,-296.12888 q -0.6441,0 -1.2716,-0.23121 -0.611,-0.24771 -1.0239,-0.6936 l 0.066,-0.67709 v 4.87175 h -2.2955 v -10.84996 h 1.9817 l 0.3303,1.40372 -0.1817,-0.49543 q 0.5615,-0.47892 1.2551,-0.79269 0.6936,-0.31378 1.6019,-0.31378 1.0074,0 1.8001,0.47892 0.7927,0.4624 1.2386,1.35418 0.4624,0.87526 0.4624,2.11385 0,1.22206 -0.512,2.08081 -0.5119,0.85875 -1.4037,1.30464 -0.8918,0.44589 -2.0478,0.44589 z m -0.4624,-1.81659 q 0.5615,0 1.0239,-0.24771 0.4789,-0.24772 0.7597,-0.69361 0.2972,-0.4624 0.2972,-1.04041 0,-0.61103 -0.2642,-1.05692 -0.2477,-0.4624 -0.6936,-0.71012 -0.4294,-0.26423 -0.9579,-0.26423 -0.4624,0 -0.8257,0.13212 -0.3468,0.1156 -0.6275,0.36331 -0.2643,0.23121 -0.4624,0.59452 v 1.76704 q 0.1321,0.34681 0.3798,0.61104 0.2477,0.26423 0.5945,0.41286 0.3633,0.13211 0.7762,0.13211 z" id="path159-65-5-1-9-7-2"/>
      <path style="font-weight:bold;font-size:16.5144px;font-family:'Josefin Sans';-inkscape-font-specification:'Josefin Sans, Bold';stroke-width:1.72161" d="m 1000.8162,-295.98025 q -0.97437,0 -1.6349,-0.59452 -0.66058,-0.61104 -0.69361,-1.56887 v -5.40021 h 2.31201 v 4.54146 q 0.033,0.47892 0.2477,0.77618 0.2148,0.28074 0.7267,0.28074 0.512,0 0.8753,-0.3468 0.3798,-0.3468 0.578,-0.94132 0.2147,-0.61103 0.2147,-1.3707 v -2.93956 h 2.312 v 7.21679 h -2.0973 l -0.1817,-1.32115 0.033,0.14863 q -0.2477,0.44589 -0.6275,0.79269 -0.3798,0.3468 -0.9083,0.52846 -0.512,0.19818 -1.1561,0.19818 z" id="path149-6-1-05-0-7-6"/>
      <path style="font-weight:bold;font-size:16.5144px;font-family:'Josefin Sans';-inkscape-font-specification:'Josefin Sans, Bold';stroke-width:1.72161" d="m 994.5504,-303.54385 0.21468,1.98173 -0.0495,-0.29726 q 0.31377,-0.64406 0.85875,-1.08995 0.54497,-0.4624 1.07343,-0.71012 0.54498,-0.24772 0.82572,-0.24772 l -0.1156,2.31202 q -0.8092,-0.0991 -1.38721,0.26423 -0.578,0.36332 -0.89177,0.95783 -0.31378,0.59452 -0.31378,1.22207 v 2.82396 h -2.29549 v -7.21679 z" id="path146-24-9-00-7-3-4"/>
      <path style="font-weight:bold;font-size:16.5144px;font-family:'Josefin Sans';-inkscape-font-specification:'Josefin Sans, Bold';stroke-width:1.72161" d="m 987.11212,-292.69389 q -0.97435,0 -1.65144,-0.2312 -0.66058,-0.2312 -1.12298,-0.56149 -0.4624,-0.33029 -0.82572,-0.62755 l 1.35418,-1.58538 q 0.37983,0.3468 0.87526,0.66058 0.51195,0.33028 1.33767,0.33028 0.54498,0 1.00738,-0.19817 0.47892,-0.18166 0.75966,-0.54497 0.29726,-0.36332 0.29726,-0.9083 v -1.58538 l 0.0826,0.41286 q -0.26423,0.56149 -0.95783,0.99087 -0.69361,0.41286 -1.81659,0.41286 -0.97435,0 -1.81658,-0.49544 -0.82572,-0.51194 -1.32115,-1.37069 -0.49543,-0.87526 -0.49543,-1.98173 0,-1.13949 0.52846,-2.01476 0.52846,-0.89177 1.37069,-1.40372 0.84224,-0.51195 1.78356,-0.51195 0.94132,0 1.61841,0.28075 0.6936,0.26423 1.04041,0.66057 l -0.0826,0.21469 0.24772,-0.79269 h 2.13036 v 7.21679 q 0,1.05692 -0.59452,1.86613 -0.59452,0.82572 -1.58538,1.28812 -0.97435,0.47892 -2.16339,0.47892 z m -1.96521,-7.34891 q 0,0.57801 0.26423,1.04041 0.26423,0.4624 0.71012,0.72663 0.4624,0.26423 1.02389,0.26423 0.47892,0 0.84223,-0.1156 0.37983,-0.13211 0.66058,-0.36331 0.29726,-0.24772 0.49543,-0.61104 v -1.76704 q -0.14863,-0.36331 -0.44589,-0.61103 -0.29726,-0.26423 -0.6936,-0.39635 -0.37983,-0.14863 -0.85875,-0.14863 -0.56149,0 -1.02389,0.26424 -0.44589,0.24771 -0.71012,0.6936 -0.26423,0.44589 -0.26423,1.02389 z" id="text229-2-2-7-08-4-5-4-33-3"/>
    </g>
    <g id="g6-50-0-04-5-9-4-5" transform="matrix(1.2259598,0,0,1.2256526,-766.44165,668.48904)" style="stroke-width:0.815787">
      <path style="font-weight:bold;font-size:16.5144px;font-family:'Josefin Sans';-inkscape-font-specification:'Josefin Sans, Bold';stroke-width:1.72161" d="m 1016.3525,-300.02628 q 0,-1.10647 0.5119,-1.98173 0.5285,-0.87526 1.4698,-1.3707 0.9413,-0.51194 2.1634,-0.51194 1.2386,0 2.1468,0.51194 0.9083,0.49544 1.3873,1.3707 0.4954,0.87526 0.4954,1.98173 0,1.10646 -0.4954,1.99824 -0.479,0.87526 -1.3873,1.38721 -0.9082,0.51195 -2.1799,0.51195 -1.189,0 -2.1303,-0.46241 -0.9248,-0.4624 -1.4533,-1.33766 -0.5284,-0.87527 -0.5284,-2.09733 z m 2.3285,0.0165 q 0,0.56149 0.2312,1.02389 0.2312,0.44589 0.6275,0.71012 0.3964,0.26423 0.8918,0.26423 0.545,0 0.9413,-0.26423 0.3964,-0.26423 0.6111,-0.71012 0.2147,-0.4624 0.2147,-1.02389 0,-0.578 -0.2147,-1.02389 -0.2147,-0.44589 -0.6111,-0.71012 -0.3963,-0.26423 -0.9413,-0.26423 -0.4954,0 -0.8918,0.26423 -0.3963,0.26423 -0.6275,0.71012 -0.2312,0.44589 -0.2312,1.02389 z" id="path160-5-5-3-2-3-9-3"/>
      <path style="font-weight:bold;font-size:16.5144px;font-family:'Josefin Sans';-inkscape-font-specification:'Josefin Sans, Bold';stroke-width:1.72161" d="m 1011.5987,-296.12888 q -0.6441,0 -1.2716,-0.23121 -0.611,-0.24771 -1.0239,-0.6936 l 0.066,-0.67709 v 4.87175 h -2.2955 v -10.84996 h 1.9817 l 0.3303,1.40372 -0.1817,-0.49543 q 0.5615,-0.47892 1.2551,-0.79269 0.6936,-0.31378 1.6019,-0.31378 1.0074,0 1.8001,0.47892 0.7927,0.4624 1.2386,1.35418 0.4624,0.87526 0.4624,2.11385 0,1.22206 -0.512,2.08081 -0.5119,0.85875 -1.4037,1.30464 -0.8918,0.44589 -2.0478,0.44589 z m -0.4624,-1.81659 q 0.5615,0 1.0239,-0.24771 0.4789,-0.24772 0.7597,-0.69361 0.2972,-0.4624 0.2972,-1.04041 0,-0.61103 -0.2642,-1.05692 -0.2477,-0.4624 -0.6936,-0.71012 -0.4294,-0.26423 -0.9579,-0.26423 -0.4624,0 -0.8257,0.13212 -0.3468,0.1156 -0.6275,0.36331 -0.2643,0.23121 -0.4624,0.59452 v 1.76704 q 0.1321,0.34681 0.3798,0.61104 0.2477,0.26423 0.5945,0.41286 0.3633,0.13211 0.7762,0.13211 z" id="path159-65-5-1-9-7-2-5"/>
      <path style="font-weight:bold;font-size:16.5144px;font-family:'Josefin Sans';-inkscape-font-specification:'Josefin Sans, Bold';stroke-width:1.72161" d="m 1000.8162,-295.98025 q -0.97437,0 -1.6349,-0.59452 -0.66058,-0.61104 -0.69361,-1.56887 v -5.40021 h 2.31201 v 4.54146 q 0.033,0.47892 0.2477,0.77618 0.2148,0.28074 0.7267,0.28074 0.512,0 0.8753,-0.3468 0.3798,-0.3468 0.578,-0.94132 0.2147,-0.61103 0.2147,-1.3707 v -2.93956 h 2.312 v 7.21679 h -2.0973 l -0.1817,-1.32115 0.033,0.14863 q -0.2477,0.44589 -0.6275,0.79269 -0.3798,0.3468 -0.9083,0.52846 -0.512,0.19818 -1.1561,0.19818 z" id="path149-6-1-05-0-7-6-2"/>
      <path style="font-weight:bold;font-size:16.5144px;font-family:'Josefin Sans';-inkscape-font-specification:'Josefin Sans, Bold';stroke-width:1.72161" d="m 994.5504,-303.54385 0.21468,1.98173 -0.0495,-0.29726 q 0.31377,-0.64406 0.85875,-1.08995 0.54497,-0.4624 1.07343,-0.71012 0.54498,-0.24772 0.82572,-0.24772 l -0.1156,2.31202 q -0.8092,-0.0991 -1.38721,0.26423 -0.578,0.36332 -0.89177,0.95783 -0.31378,0.59452 -0.31378,1.22207 v 2.82396 h -2.29549 v -7.21679 z" id="path146-24-9-00-7-3-4-9"/>
      <path style="font-weight:bold;font-size:16.5144px;font-family:'Josefin Sans';-inkscape-font-specification:'Josefin Sans, Bold';stroke-width:1.72161" d="m 987.11212,-292.69389 q -0.97435,0 -1.65144,-0.2312 -0.66058,-0.2312 -1.12298,-0.56149 -0.4624,-0.33029 -0.82572,-0.62755 l 1.35418,-1.58538 q 0.37983,0.3468 0.87526,0.66058 0.51195,0.33028 1.33767,0.33028 0.54498,0 1.00738,-0.19817 0.47892,-0.18166 0.75966,-0.54497 0.29726,-0.36332 0.29726,-0.9083 v -1.58538 l 0.0826,0.41286 q -0.26423,0.56149 -0.95783,0.99087 -0.69361,0.41286 -1.81659,0.41286 -0.97435,0 -1.81658,-0.49544 -0.82572,-0.51194 -1.32115,-1.37069 -0.49543,-0.87526 -0.49543,-1.98173 0,-1.13949 0.52846,-2.01476 0.52846,-0.89177 1.37069,-1.40372 0.84224,-0.51195 1.78356,-0.51195 0.94132,0 1.61841,0.28075 0.6936,0.26423 1.04041,0.66057 l -0.0826,0.21469 0.24772,-0.79269 h 2.13036 v 7.21679 q 0,1.05692 -0.59452,1.86613 -0.59452,0.82572 -1.58538,1.28812 -0.97435,0.47892 -2.16339,0.47892 z m -1.96521,-7.34891 q 0,0.57801 0.26423,1.04041 0.26423,0.4624 0.71012,0.72663 0.4624,0.26423 1.02389,0.26423 0.47892,0 0.84223,-0.1156 0.37983,-0.13211 0.66058,-0.36331 0.29726,-0.24772 0.49543,-0.61104 v -1.76704 q -0.14863,-0.36331 -0.44589,-0.61103 -0.29726,-0.26423 -0.6936,-0.39635 -0.37983,-0.14863 -0.85875,-0.14863 -0.56149,0 -1.02389,0.26424 -0.44589,0.24771 -0.71012,0.6936 -0.26423,0.44589 -0.26423,1.02389 z" id="text229-2-2-7-08-4-5-4-33-3-5"/>
    </g>
    <path id="path100-1-1-9-9-0-0-1-8-7" style="fill:#000000;fill-opacity:1;stroke:none;stroke-width:0.577724" d="m 642.43914,312.43119 0.36164,-0.35365 22.93549,-22.41034 -22.03095,11.95264 -1.22611,10.28799 -0.0581,0.51418 z"/>
    <path id="path99-5-4-1-0-21-1-0-5-2" style="fill:#0097d6;fill-opacity:1;stroke:none;stroke-width:0.577724;stroke-opacity:1" d="m 853.79538,289.31428 -0.36292,0.35301 -22.93565,22.41016 22.03111,-11.95258 1.22612,-10.28787 0.0581,-0.51419 z"/>
    <path id="path99-5-4-1-0-21-1-0-5-20" style="fill:#0097d6;fill-opacity:1;stroke:none;stroke-width:0.577724;stroke-opacity:1" d="m 1218.0111,295.20572 -0.3629,0.35301 -22.9357,22.41016 22.0312,-11.95258 1.2261,-10.28787 0.058,-0.51419 z"/>
    <path id="path100-1-1-9-9-0-0-1-8-2" style="fill:#000000;fill-opacity:1;stroke:none;stroke-width:0.577724" d="m 1209.4697,298.41871 0.3616,-0.35365 22.9355,-22.41034 -22.0309,11.95264 -1.2262,10.28799 -0.058,0.51418 z"/>
  </g>
</svg>